<?xml version="1.0" standalone="no"?><!DOCTYPE svg PUBLIC "-//W3C//DTD SVG 1.1//EN" "http://www.w3.org/Graphics/SVG/1.1/DTD/svg11.dtd"><svg t="1615388965614" class="icon" viewBox="0 0 1024 1024" version="1.1" xmlns="http://www.w3.org/2000/svg" p-id="3283" xmlns:xlink="http://www.w3.org/1999/xlink" width="200" height="200"><defs><style type="text/css"></style></defs><path d="M922.937257 959.832562H65.927525l0.534166-24.830525c3.809769-176.760796 111.082958-331.154165 271.530206-397.37231-56.663534-50.829665-89.416496-123.029034-89.416495-200.688765 0-149.112086 121.313973-270.426059 270.426059-270.426059s270.426059 121.313973 270.426059 270.426059c0 80.786954-36.533055 156.892283-97.682763 207.810976 99.516528 46.028313 178.986487 127.95523 221.703381 230.178403 5.180999 12.385075-0.665149 26.622334-13.056364 31.797194-12.403494 5.180999-26.628474-0.676405-31.797193-13.056364-43.340087-103.700827-129.178081-183.92394-235.506759-220.094744l-51.018977-17.358343 46.77635-26.753317c69.066005-39.506782 111.967094-113.272833 111.967094-192.522782 0-122.305557-99.505271-221.809805-221.809805-221.809805S297.192679 214.637452 297.192679 336.941985c0 76.739778 39.037085 146.992819 104.424305 187.930184l45.720297 28.628014-51.731198 15.287171c-156.122757 46.134737-265.751596 181.946912-279.234679 342.428953h806.566876c13.423731 0 24.307615 10.883885 24.307615 24.307616 0 13.424754-10.883885 24.308639-24.308638 24.308639z" p-id="3284"></path></svg>